<svg width="44" height="44" viewBox="0 0 44 44" fill="none" xmlns="http://www.w3.org/2000/svg">
<path d="M10.0833 14.3001C11.5499 14.3001 12.8333 13.9334 13.7499 12.8334C14.8499 11.7334 15.3999 10.4501 15.3999 8.98341C15.3999 7.51675 14.8499 6.23341 13.7499 5.13341C12.8333 4.21675 11.5499 3.66675 10.0833 3.66675C8.43327 3.66675 7.33327 4.21675 6.23327 5.31675C5.13327 6.23341 4.58327 7.51675 4.58327 8.98341C4.58327 10.4501 5.13327 11.7334 6.23327 12.8334C7.33327 13.9334 8.43327 14.3001 10.0833 14.3001ZM16.3166 22.7334C17.9666 24.3834 19.7999 25.1167 21.9999 25.1167C24.1999 25.1167 26.0333 24.3834 27.6833 22.7334C29.3333 21.0834 30.0666 19.2501 30.0666 17.0501C30.0666 14.8501 29.3333 13.0167 27.6833 11.3667C26.0333 9.71675 24.1999 8.98341 21.9999 8.98341C19.7999 8.98341 17.9666 9.71675 16.3166 11.3667C14.8499 13.0167 13.9333 14.8501 13.9333 17.0501C13.9333 19.2501 14.8499 21.2667 16.3166 22.7334ZM34.0999 14.3001C35.5666 14.3001 36.8499 13.7501 37.9499 12.6501C39.0499 11.5501 39.5999 10.2667 39.5999 8.80008C39.5999 7.33341 39.0499 6.05008 37.9499 4.95008C36.8499 4.21675 35.5666 3.66675 34.0999 3.66675C32.6333 3.66675 31.3499 4.21675 30.2499 5.31675C29.1499 6.41675 28.5999 7.70008 28.5999 9.16675C28.5999 10.6334 29.1499 11.9167 30.2499 13.0167C31.3499 13.9334 32.6333 14.3001 34.0999 14.3001ZM39.5999 14.3001C39.5999 14.3001 39.2333 14.4834 38.6833 14.6667C38.1333 15.0334 37.3999 15.2167 36.6666 15.5834C35.7499 15.9501 35.0166 15.9501 34.0999 15.9501C33.1833 15.9501 32.2666 15.7667 31.3499 15.4001C31.3499 15.9501 31.5333 16.3167 31.5333 16.8667C31.5333 18.8834 30.9833 20.5334 29.8833 22.1834C32.0833 22.1834 33.9166 23.1001 35.3833 24.9334H38.1333C39.2333 24.9334 40.1499 24.5667 41.0666 24.0167C41.7999 23.4667 42.1666 22.5501 42.1666 21.4501C42.1666 16.8667 41.2499 14.3001 39.5999 14.3001ZM36.4833 31.3501C36.2999 30.6167 36.1166 29.7001 35.9333 29.1501C35.7499 28.4167 35.3833 27.6834 35.0166 27.1334C34.6499 26.4001 34.2833 25.8501 33.7333 25.4834C33.1833 24.9334 32.6333 24.5667 31.8999 24.3834C31.1666 23.8334 30.4333 23.8334 29.5166 23.8334C29.3333 23.8334 29.1499 24.0167 28.5999 24.2001C28.0499 24.5667 27.6833 24.7501 27.1333 25.1167C26.5833 25.4834 25.8499 25.8501 24.9333 26.0334C24.0166 26.4001 23.0999 26.4001 22.1833 26.4001C21.2666 26.4001 20.3499 26.2167 19.4333 26.0334C18.3333 25.8501 17.5999 25.6667 17.0499 25.3001C16.4999 24.9334 15.9499 24.5667 15.5833 24.3834C15.0333 23.8334 14.6666 23.8334 14.4833 23.8334C13.5666 23.8334 12.8333 24.0167 12.0999 24.2001C11.3666 24.5667 10.8166 24.9334 10.2666 25.3001C9.7166 25.8501 9.34994 26.4001 8.98327 26.9501C8.6166 27.6834 8.24994 28.2334 8.0666 28.9667C7.88327 29.7001 7.69993 30.4334 7.5166 31.1667C7.33327 31.9001 7.33327 32.8167 7.14994 33.3667C7.14994 34.1001 7.14994 34.8334 7.14994 35.5667C7.14994 37.2167 7.69993 38.5001 8.6166 39.6001C9.7166 40.5167 10.9999 41.0667 12.6499 41.0667H30.9833C32.6333 41.0667 34.0999 40.5167 35.0166 39.6001C36.1166 38.6834 36.4833 37.2167 36.4833 35.5667C36.4833 34.8334 36.4833 34.1001 36.4833 33.3667C36.6666 32.8167 36.6666 32.0834 36.4833 31.3501ZM14.2999 22.3667C13.1999 20.7167 12.6499 18.8834 12.6499 17.0501C12.6499 16.6834 12.6499 16.1334 12.8333 15.5834C11.9166 15.9501 10.9999 16.1334 10.0833 16.1334C9.1666 16.1334 8.43327 15.9501 7.5166 15.7667C6.59993 15.4001 6.04993 15.0334 5.49993 14.8501C4.94993 14.4834 4.58327 14.3001 4.58327 14.3001C2.93327 14.3001 2.0166 16.6834 2.0166 21.6334C2.0166 22.7334 2.38327 23.4667 3.1166 24.2001C3.84993 24.7501 4.94993 25.1167 6.04993 25.1167H8.79994C10.2666 23.4667 12.0999 22.5501 14.2999 22.3667Z" fill="url(#paint0_linear_157_48)"/>
<defs>
<linearGradient id="paint0_linear_157_48" x1="1.96417" y1="22.4276" x2="42.1657" y2="22.4276" gradientUnits="userSpaceOnUse">
<stop stop-color="#1245C6"/>
<stop offset="1" stop-color="#9909B7"/>
</linearGradient>
</defs>
</svg>
