<svg width="44" height="44" viewBox="0 0 44 44" fill="none" xmlns="http://www.w3.org/2000/svg">
<path d="M41.5643 0.740897C41.0735 0.250053 40.4715 0 39.7676 0C39.4898 0 39.2398 0.0370448 39.0268 0.101873L17.0314 6.87182C16.5035 7.04778 16.0682 7.36266 15.7348 7.8072C15.4014 8.261 15.2347 8.75184 15.2347 9.29825V34.8684C13.6973 34.1831 12.0118 33.8405 10.1596 33.8405C9.3631 33.8405 8.52033 33.9331 7.61274 34.1183C6.70514 34.3035 5.78828 34.5814 4.87142 34.9611C3.95456 35.3408 3.19514 35.8779 2.59316 36.5632C1.99118 37.2486 1.69482 38.0358 1.69482 38.9156C1.69482 39.7954 1.99118 40.5826 2.59316 41.2679C3.19514 41.9533 3.95456 42.4904 4.87142 42.8701C5.78828 43.2498 6.70514 43.5277 7.61274 43.7129C8.52033 43.8981 9.37236 43.9907 10.1688 43.9907C10.9653 43.9907 11.8081 43.8981 12.7249 43.7129C13.6325 43.5277 14.5494 43.2498 15.4662 42.8701C16.3831 42.4904 17.1425 41.9533 17.7445 41.2679C18.3465 40.5826 18.6428 39.7954 18.6428 38.9156V20.1709L38.9527 13.9011V28.0985C37.4153 27.4132 35.7298 27.0705 33.8775 27.0705C33.0811 27.0705 32.229 27.1631 31.3214 27.3483C30.4138 27.5336 29.5062 27.8114 28.5801 28.1911C27.6633 28.5708 26.9038 29.108 26.3019 29.7933C25.6999 30.4786 25.4035 31.2658 25.4035 32.1457C25.4035 33.0255 25.6999 33.8127 26.3019 34.498C26.9038 35.1833 27.6633 35.7205 28.5801 36.1002C29.497 36.4799 30.4046 36.7577 31.3214 36.943C32.229 37.1282 33.0811 37.2208 33.8775 37.2208C34.674 37.2208 35.5168 37.1282 36.4244 36.943C37.332 36.7577 38.2395 36.4799 39.1657 36.1002C40.0825 35.7205 40.8419 35.1926 41.4439 34.498C42.0459 33.8127 42.3423 33.0255 42.3423 32.1457V2.53757C42.3052 1.83372 42.0552 1.23174 41.5643 0.740897Z" fill="url(#paint0_linear_157_45)"/>
<defs>
<linearGradient id="paint0_linear_157_45" x1="1.69168" y1="21.9986" x2="42.3057" y2="21.9986" gradientUnits="userSpaceOnUse">
<stop stop-color="#1245C6"/>
<stop offset="1" stop-color="#9909B7"/>
</linearGradient>
</defs>
</svg>
